{"glyphs":{"A":{"ha":792,"x_min":-5,"x_max":797,"o":"m 227 148 l 163 0 l -5 0 l 288 670 l 502 670 l 797 0 l 625 0 l 562 148 l 227 148 m 389 533 l 348 429 l 285 283 l 504 283 l 441 429 l 400 533 l 389 533"},"B":{"ha":693,"x_min":37,"x_max":678,"o":"m 458 0 l 458 0 l 37 0 l 37 670 l 439 670 q 596 628 542 670 q 650 507 650 586 l 650 507 q 494 356 650 367 l 494 356 l 494 347 q 632 298 585 340 q 678 186 678 255 l 678 186 q 623 49 678 98 q 458 0 568 0 m 420 535 l 187 535 l 187 404 l 422 404 q 482 420 463 404 q 500 469 500 435 l 500 469 q 481 520 500 504 q 420 535 462 535 l 420 535 m 440 280 l 187 280 l 187 135 l 440 135 q 506 152 486 135 q 526 208 526 168 l 526 208 q 506 264 526 247 q 440 280 486 280 l 440 280"},"C":{"ha":750,"x_min":25,"x_max":725,"o":"m 383 -10 l 383 -10 q 122 84 218 -10 q 25 335 25 178 q 122 586 25 492 q 383 680 218 680 l 383 680 q 633 607 540 680 q 725 406 725 533 l 725 406 l 725 391 l 558 391 l 558 406 q 517 505 558 473 q 386 536 476 536 l 386 536 q 230 491 275 536 q 184 335 184 446 q 230 179 184 224 q 386 134 275 134 l 386 134 q 517 166 476 134 q 558 264 558 197 l 558 264 l 558 279 l 725 279 l 725 264 q 633 64 725 137 q 383 -10 540 -10"},"D":{"ha":747,"x_min":48,"x_max":722,"o":"m 371 0 l 371 0 l 48 0 l 48 670 l 371 670 q 628 581 533 670 q 722 335 722 492 q 628 89 722 178 q 371 0 533 0 m 371 535 l 371 535 l 198 535 l 198 135 l 371 135 q 520 177 477 135 q 562 335 562 218 q 520 494 562 452 q 371 535 477 535"},"E":{"ha":635,"x_min":40,"x_max":607,"o":"m 607 135 l 607 0 l 40 0 l 40 670 l 607 670 l 607 535 l 190 535 l 190 404 l 592 404 l 592 270 l 190 270 l 190 135 l 607 135"},"F":{"ha":631,"x_min":40,"x_max":607,"o":"m 190 250 l 190 0 l 40 0 l 40 670 l 607 670 l 607 535 l 190 535 l 190 384 l 592 384 l 592 250 l 190 250"},"G":{"ha":774,"x_min":25,"x_max":741,"o":"m 356 -10 l 356 -10 q 114 84 203 -10 q 25 335 25 177 q 125 587 25 493 q 397 680 225 680 l 397 680 q 648 611 555 680 q 740 421 740 541 l 740 421 l 740 413 l 573 413 l 573 421 q 531 508 573 480 q 393 536 488 536 l 393 536 q 231 491 278 536 q 184 335 184 446 q 230 179 184 224 q 386 134 275 134 l 386 134 q 545 157 502 134 q 591 243 588 179 l 591 243 l 364 243 l 364 354 l 741 354 l 741 0 l 602 0 l 602 144 l 594 144 q 356 -10 554 -10"},"H":{"ha":730,"x_min":40,"x_max":690,"o":"m 190 269 l 190 0 l 40 0 l 40 670 l 190 670 l 190 404 l 540 404 l 540 670 l 690 670 l 690 0 l 540 0 l 540 269 l 190 269"},"I":{"ha":229,"x_min":40,"x_max":190,"o":"m 190 670 l 190 0 l 40 0 l 40 670 l 190 670"},"J":{"ha":648,"x_min":15,"x_max":613,"o":"m 313 -10 l 313 -10 q 86 62 156 -10 q 15 272 15 134 l 15 272 l 15 301 l 174 301 l 174 272 q 201 165 174 194 q 313 136 227 136 l 313 136 q 426 164 398 136 q 454 265 454 192 l 454 265 l 454 670 l 613 670 l 613 265 q 542 61 613 131 q 313 -10 471 -10"},"K":{"ha":713,"x_min":40,"x_max":715,"o":"m 190 258 l 190 0 l 40 0 l 40 670 l 190 670 l 190 404 l 357 404 l 535 670 l 715 670 l 482 340 l 712 0 l 532 0 l 359 258 l 190 258"},"L":{"ha":609,"x_min":40,"x_max":589,"o":"m 589 135 l 589 0 l 40 0 l 40 670 l 190 670 l 190 135 l 589 135"},"M":{"ha":930,"x_min":40,"x_max":891,"o":"m 190 340 l 190 0 l 40 0 l 40 670 l 243 670 l 400 340 l 463 183 l 474 183 l 535 340 l 687 670 l 891 670 l 891 0 l 741 0 l 741 340 l 746 445 l 735 445 l 696 340 l 556 40 l 374 40 l 234 340 l 195 445 l 184 445 l 190 340"},"N":{"ha":726,"x_min":40,"x_max":686,"o":"m 190 323 l 190 0 l 40 0 l 40 670 l 200 670 l 440 353 l 532 212 l 543 212 l 536 347 l 536 670 l 686 670 l 686 0 l 526 0 l 279 320 l 194 446 l 184 446 l 190 323"},"O":{"ha":774,"x_min":25,"x_max":749,"o":"m 385 -10 l 385 -10 q 122 84 219 -10 q 25 335 25 178 q 122 586 25 492 q 385 680 219 680 l 385 680 q 652 587 554 680 q 749 335 749 493 q 652 84 749 177 q 385 -10 554 -10 m 229 179 q 385 134 274 134 q 543 179 496 134 q 589 335 589 224 q 543 491 589 446 q 385 536 496 536 q 229 491 274 536 q 184 335 184 446 q 229 179 184 224"},"P":{"ha":658,"x_min":40,"x_max":645,"o":"m 190 185 l 190 0 l 40 0 l 40 670 l 390 670 q 577 606 508 670 q 645 428 645 542 q 576 250 645 314 q 390 185 507 185 l 390 185 l 190 185 m 374 535 l 374 535 l 190 535 l 190 320 l 374 320 q 468 344 439 320 q 496 428 496 367 l 496 428 q 467 512 496 488 q 374 535 438 535"},"Q":{"ha":774,"x_min":25,"x_max":749,"o":"m 521 9 l 654 -141 l 459 -141 l 355 -9 q 114 93 202 0 q 25 335 25 185 l 25 335 q 122 586 25 492 q 385 680 219 680 l 385 680 q 652 587 554 680 q 749 335 749 493 l 749 335 q 690 128 749 213 q 521 9 630 42 l 521 9 m 229 179 q 385 134 274 134 q 543 179 496 134 q 589 335 589 224 q 543 491 589 446 q 385 536 496 536 q 229 491 274 536 q 184 335 184 446 q 229 179 184 224"},"R":{"ha":692,"x_min":40,"x_max":685,"o":"m 190 243 l 190 0 l 40 0 l 40 670 l 410 670 q 602 618 534 670 q 669 469 669 565 l 669 469 q 480 283 669 301 l 480 283 l 480 275 q 545 242 522 264 q 588 180 567 220 l 588 180 l 685 0 l 511 0 l 419 174 q 372 229 398 214 q 289 243 346 243 l 289 243 l 190 243 m 409 535 l 190 535 l 190 356 l 409 356 q 488 376 464 356 q 512 446 512 395 l 512 446 q 488 515 512 495 q 409 535 463 535 l 409 535"},"S":{"ha":663,"x_min":21,"x_max":642,"o":"m 344 -10 l 344 -10 q 109 50 191 -10 q 27 226 27 110 l 27 226 l 27 232 l 177 232 l 177 214 q 211 147 177 166 q 344 127 245 127 l 344 127 q 462 141 431 127 q 492 190 492 155 l 492 190 q 472 235 492 220 q 400 258 452 249 l 400 258 l 212 285 q 21 473 21 315 l 21 473 q 97 620 21 559 q 328 680 172 680 l 328 680 q 554 617 478 680 q 630 444 630 554 l 630 444 l 630 438 l 479 438 l 479 452 q 445 523 479 502 q 313 543 410 543 l 313 543 q 203 528 234 543 q 172 479 172 512 l 172 479 q 190 437 172 450 q 250 416 207 424 l 250 416 l 438 386 q 642 197 642 353 l 642 197 q 568 49 642 108 q 344 -10 494 -10"},"T":{"ha":676,"x_min":14,"x_max":662,"o":"m 413 535 l 413 0 l 263 0 l 263 535 l 14 535 l 14 670 l 662 670 l 662 535 l 413 535"},"U":{"ha":729,"x_min":35,"x_max":693,"o":"m 364 -10 l 364 -10 q 119 67 203 -10 q 35 280 35 143 l 35 280 l 35 670 l 185 670 l 185 291 q 224 171 185 205 q 364 136 263 136 l 364 136 q 505 171 466 136 q 543 291 543 205 l 543 291 l 543 670 l 693 670 l 693 280 q 610 67 693 143 q 364 -10 526 -10"},"V":{"ha":754,"x_min":-8,"x_max":762,"o":"m 762 670 l 484 0 l 270 0 l -8 670 l 173 670 l 374 152 l 384 152 l 582 670 l 762 670"},"W":{"ha":1093,"x_min":11,"x_max":1081,"o":"m 494 335 l 392 0 l 169 0 l 11 670 l 179 670 l 260 290 l 283 143 l 294 143 l 325 290 l 437 670 l 660 670 l 771 290 l 802 143 l 813 143 l 836 290 l 917 670 l 1081 670 l 922 0 l 699 0 l 599 335 l 552 528 l 541 528 l 494 335"},"X":{"ha":762,"x_min":-5,"x_max":767,"o":"m 373 242 l 191 0 l -5 0 l 256 331 l 256 342 l -5 670 l 191 670 l 379 431 l 390 431 l 571 670 l 767 670 l 507 339 l 507 328 l 767 0 l 571 0 l 384 242 l 373 242"},"Y":{"ha":728,"x_min":-11,"x_max":739,"o":"m 437 221 l 437 0 l 286 0 l 286 222 l -11 670 l 174 670 l 302 474 l 358 384 l 369 384 l 425 474 l 553 670 l 739 670 l 437 221"},"Z":{"ha":685,"x_min":29,"x_max":657,"o":"m 657 135 l 657 0 l 29 0 l 29 135 l 423 524 l 423 535 l 38 535 l 38 670 l 649 670 l 649 535 l 242 146 l 242 135 l 657 135"}}}
